{
    "asset" : {
        "generator" : "Khronos glTF Blender I/O v1.5.17",
        "version" : "2.0"
    },
    "scene" : 0,
    "scenes" : [
        {
            "name" : "Scene",
            "nodes" : [
                0
            ]
        }
    ],
    "nodes" : [
        {
            "mesh" : 0,
            "name" : "Mesh Cut1",
            "rotation" : [
                0.40408745408058167,
                0,
                0,
                0.914720356464386
            ],
            "scale" : [
                3.1060497760772705,
                3.1060497760772705,
                3.1060497760772705
            ],
            "translation" : [
                4.835911750793457,
                -0.47251832485198975,
                3.094348430633545
            ]
        }
    ],
    "materials" : [
        {
            "alphaMode" : "BLEND",
            "doubleSided" : true,
            "name" : "main.011",
            "pbrMetallicRoughness" : {
                "baseColorFactor" : [
                    0.567844808101654,
                    0.6546691060066223,
                    1,
                    0.20000000298023224
                ],
                "roughnessFactor" : 0
            }
        }
    ],
    "meshes" : [
        {
            "name" : "Mesh Cut1",
            "primitives" : [
                {
                    "attributes" : {
                        "POSITION" : 0,
                        "NORMAL" : 1
                    },
                    "indices" : 2,
                    "material" : 0
                }
            ]
        }
    ],
    "accessors" : [
        {
            "bufferView" : 0,
            "componentType" : 5126,
            "count" : 81020,
            "max" : [
                0.37405654788017273,
                1.0560550689697266,
                0.20013871788978577
            ],
            "min" : [
                -0.32528287172317505,
                0.31791725754737854,
                -0.2539699971675873
            ],
            "type" : "VEC3"
        },
        {
            "bufferView" : 1,
            "componentType" : 5126,
            "count" : 81020,
            "type" : "VEC3"
        },
        {
            "bufferView" : 2,
            "componentType" : 5125,
            "count" : 120072,
            "type" : "SCALAR"
        }
    ],
    "bufferViews" : [
        {
            "buffer" : 0,
            "byteLength" : 972240,
            "byteOffset" : 0
        },
        {
            "buffer" : 0,
            "byteLength" : 972240,
            "byteOffset" : 972240
        },
        {
            "buffer" : 0,
            "byteLength" : 480288,
            "byteOffset" : 1944480
        }
    ],
    "buffers" : [
        {
            "byteLength" : 2424768,
            "uri" : "data:application/octet-stream;base64,"
        }
    ]
}
